<svg xmlns="http://www.w3.org/2000/svg" xmlns:xlink="http://www.w3.org/1999/xlink" id="processonSvg1000" viewBox="38.84999084472656 6.1999969482421875 1151.5500183105469 1373.4499163627625" width="1151.5500183105469" height="1373.4499163627625"><defs id="ProcessOnDefs1001"><marker id="ProcessOnMarker1016" markerUnits="userSpaceOnUse" orient="auto" markerWidth="16.23606797749979" markerHeight="10.550836550532098" viewBox="-1.0 -1.3763819204711736 16.23606797749979 10.550836550532098" refX="-1.0" refY="3.8990363547948754"><path id="ProcessOnPath1017" d="M12.0 3.8990363547948754L0.0 7.798072709589751V0.0Z" stroke="#ff0000" stroke-width="2.0" fill="#ff0000" transform="matrix(1.0,0.0,0.0,1.0,0.0,0.0)"/></marker><marker id="ProcessOnMarker1038" markerUnits="userSpaceOnUse" orient="auto" markerWidth="16.23606797749979" markerHeight="10.550836550532098" viewBox="-1.0 -1.3763819204711736 16.23606797749979 10.550836550532098" refX="-1.0" refY="3.8990363547948754"><path id="ProcessOnPath1039" d="M12.0 3.8990363547948754L0.0 7.798072709589751V0.0Z" stroke="#ff0000" stroke-width="2.0" fill="#ff0000" transform="matrix(1.0,0.0,0.0,1.0,0.0,0.0)"/></marker><marker id="ProcessOnMarker1042" markerUnits="userSpaceOnUse" orient="auto" markerWidth="16.23606797749979" markerHeight="10.550836550532098" viewBox="-1.0 -1.3763819204711736 16.23606797749979 10.550836550532098" refX="-1.0" refY="3.8990363547948754"><path id="ProcessOnPath1043" d="M12.0 3.8990363547948754L0.0 7.798072709589751V0.0Z" stroke="#ff8000" stroke-width="2.0" fill="#ff8000" transform="matrix(1.0,0.0,0.0,1.0,0.0,0.0)"/></marker><marker id="ProcessOnMarker1046" markerUnits="userSpaceOnUse" orient="auto" markerWidth="16.23606797749979" markerHeight="10.550836550532098" viewBox="-1.0 -1.3763819204711736 16.23606797749979 10.550836550532098" refX="-1.0" refY="3.8990363547948754"><path id="ProcessOnPath1047" d="M12.0 3.8990363547948754L0.0 7.798072709589751V0.0Z" stroke="#ff8000" stroke-width="2.0" fill="#ff8000" transform="matrix(1.0,0.0,0.0,1.0,0.0,0.0)"/></marker><marker id="ProcessOnMarker1054" markerUnits="userSpaceOnUse" orient="auto" markerWidth="16.23606797749979" markerHeight="10.550836550532098" viewBox="-1.0 -1.3763819204711736 16.23606797749979 10.550836550532098" refX="-1.0" refY="3.8990363547948754"><path id="ProcessOnPath1055" d="M12.0 3.8990363547948754L0.0 7.798072709589751V0.0Z" stroke="#ff0000" stroke-width="2.0" fill="#ff0000" transform="matrix(1.0,0.0,0.0,1.0,0.0,0.0)"/></marker><marker id="ProcessOnMarker1068" markerUnits="userSpaceOnUse" orient="auto" markerWidth="16.23606797749979" markerHeight="10.550836550532098" viewBox="-1.0 -1.3763819204711736 16.23606797749979 10.550836550532098" refX="-1.0" refY="3.8990363547948754"><path id="ProcessOnPath1069" d="M12.0 3.8990363547948754L0.0 7.798072709589751V0.0Z" stroke="#ff8000" stroke-width="2.0" fill="#ff8000" transform="matrix(1.0,0.0,0.0,1.0,0.0,0.0)"/></marker><marker id="ProcessOnMarker1076" markerUnits="userSpaceOnUse" orient="auto" markerWidth="16.23606797749979" markerHeight="10.550836550532098" viewBox="-1.0 -1.3763819204711736 16.23606797749979 10.550836550532098" refX="-1.0" refY="3.8990363547948754"><path id="ProcessOnPath1077" d="M12.0 3.8990363547948754L0.0 7.798072709589751V0.0Z" stroke="#323232" stroke-width="2.0" fill="#323232" transform="matrix(1.0,0.0,0.0,1.0,0.0,0.0)"/></marker><marker id="ProcessOnMarker1080" markerUnits="userSpaceOnUse" orient="auto" markerWidth="16.23606797749979" markerHeight="10.550836550532098" viewBox="-1.0 -1.3763819204711736 16.23606797749979 10.550836550532098" refX="-1.0" refY="3.8990363547948754"><path id="ProcessOnPath1081" d="M12.0 3.8990363547948754L0.0 7.798072709589751V0.0Z" stroke="#323232" stroke-width="2.0" fill="#323232" transform="matrix(1.0,0.0,0.0,1.0,0.0,0.0)"/></marker><marker id="ProcessOnMarker1087" markerUnits="userSpaceOnUse" orient="auto" markerWidth="16.23606797749979" markerHeight="10.550836550532098" viewBox="-1.0 -1.3763819204711736 16.23606797749979 10.550836550532098" refX="-1.0" refY="3.8990363547948754"><path id="ProcessOnPath1088" d="M12.0 3.8990363547948754L0.0 7.798072709589751V0.0Z" stroke="#323232" stroke-width="2.0" fill="#323232" transform="matrix(1.0,0.0,0.0,1.0,0.0,0.0)"/></marker><marker id="ProcessOnMarker1102" markerUnits="userSpaceOnUse" orient="auto" markerWidth="16.23606797749979" markerHeight="10.550836550532098" viewBox="-1.0 -1.3763819204711736 16.23606797749979 10.550836550532098" refX="-1.0" refY="3.8990363547948754"><path id="ProcessOnPath1103" d="M12.0 3.8990363547948754L0.0 7.798072709589751V0.0Z" stroke="#ff8000" stroke-width="2.0" fill="#ff8000" transform="matrix(1.0,0.0,0.0,1.0,0.0,0.0)"/></marker><marker id="ProcessOnMarker1137" markerUnits="userSpaceOnUse" orient="auto" markerWidth="16.23606797749979" markerHeight="10.550836550532098" viewBox="-1.0 -1.3763819204711736 16.23606797749979 10.550836550532098" refX="-1.0" refY="3.8990363547948754"><path id="ProcessOnPath1138" d="M12.0 3.8990363547948754L0.0 7.798072709589751V0.0Z" stroke="#323232" stroke-width="2.0" fill="#323232" transform="matrix(1.0,0.0,0.0,1.0,0.0,0.0)"/></marker><marker id="ProcessOnMarker1165" markerUnits="userSpaceOnUse" orient="auto" markerWidth="16.23606797749979" markerHeight="10.550836550532098" viewBox="-1.0 -1.3763819204711736 16.23606797749979 10.550836550532098" refX="-1.0" refY="3.8990363547948754"><path id="ProcessOnPath1166" d="M12.0 3.8990363547948754L0.0 7.798072709589751V0.0Z" stroke="#323232" stroke-width="2.0" fill="#323232" transform="matrix(1.0,0.0,0.0,1.0,0.0,0.0)"/></marker><marker id="ProcessOnMarker1177" markerUnits="userSpaceOnUse" orient="auto" markerWidth="16.23606797749979" markerHeight="10.550836550532098" viewBox="-1.0 -1.3763819204711736 16.23606797749979 10.550836550532098" refX="-1.0" refY="3.8990363547948754"><path id="ProcessOnPath1178" d="M12.0 3.8990363547948754L0.0 7.798072709589751V0.0Z" stroke="#323232" stroke-width="2.0" fill="#323232" transform="matrix(1.0,0.0,0.0,1.0,0.0,0.0)"/></marker><marker id="ProcessOnMarker1189" markerUnits="userSpaceOnUse" orient="auto" markerWidth="16.23606797749979" markerHeight="10.550836550532098" viewBox="-1.0 -1.3763819204711736 16.23606797749979 10.550836550532098" refX="-1.0" refY="3.8990363547948754"><path id="ProcessOnPath1190" d="M12.0 3.8990363547948754L0.0 7.798072709589751V0.0Z" stroke="#323232" stroke-width="2.0" fill="#323232" transform="matrix(1.0,0.0,0.0,1.0,0.0,0.0)"/></marker><marker id="ProcessOnMarker1193" markerUnits="userSpaceOnUse" orient="auto" markerWidth="16.23606797749979" markerHeight="10.550836550532098" viewBox="-1.0 -1.3763819204711736 16.23606797749979 10.550836550532098" refX="-1.0" refY="3.8990363547948754"><path id="ProcessOnPath1194" d="M12.0 3.8990363547948754L0.0 7.798072709589751V0.0Z" stroke="#323232" stroke-width="2.0" fill="#323232" transform="matrix(1.0,0.0,0.0,1.0,0.0,0.0)"/></marker><marker id="ProcessOnMarker1207" markerUnits="userSpaceOnUse" orient="auto" markerWidth="16.23606797749979" markerHeight="10.550836550532098" viewBox="-1.0 -1.3763819204711736 16.23606797749979 10.550836550532098" refX="-1.0" refY="3.8990363547948754"><path id="ProcessOnPath1208" d="M12.0 3.8990363547948754L0.0 7.798072709589751V0.0Z" stroke="#323232" stroke-width="2.0" fill="#323232" transform="matrix(1.0,0.0,0.0,1.0,0.0,0.0)"/></marker><marker id="ProcessOnMarker1214" markerUnits="userSpaceOnUse" orient="auto" markerWidth="16.23606797749979" markerHeight="10.550836550532098" viewBox="-1.0 -1.3763819204711736 16.23606797749979 10.550836550532098" refX="-1.0" refY="3.8990363547948754"><path id="ProcessOnPath1215" d="M12.0 3.8990363547948754L0.0 7.798072709589751V0.0Z" stroke="#323232" stroke-width="2.0" fill="#323232" transform="matrix(1.0,0.0,0.0,1.0,0.0,0.0)"/></marker><marker id="ProcessOnMarker1229" markerUnits="userSpaceOnUse" orient="auto" markerWidth="16.23606797749979" markerHeight="10.550836550532098" viewBox="-1.0 -1.3763819204711736 16.23606797749979 10.550836550532098" refX="-1.0" refY="3.8990363547948754"><path id="ProcessOnPath1230" d="M12.0 3.8990363547948754L0.0 7.798072709589751V0.0Z" stroke="#323232" stroke-width="2.0" fill="#323232" transform="matrix(1.0,0.0,0.0,1.0,0.0,0.0)"/></marker><marker id="ProcessOnMarker1233" markerUnits="userSpaceOnUse" orient="auto" markerWidth="16.23606797749979" markerHeight="10.550836550532098" viewBox="-1.0 -1.3763819204711736 16.23606797749979 10.550836550532098" refX="-1.0" refY="3.8990363547948754"><path id="ProcessOnPath1234" d="M12.0 3.8990363547948754L0.0 7.798072709589751V0.0Z" stroke="#323232" stroke-width="2.0" fill="#323232" transform="matrix(1.0,0.0,0.0,1.0,0.0,0.0)"/></marker><marker id="ProcessOnMarker1237" markerUnits="userSpaceOnUse" orient="auto" markerWidth="16.23606797749979" markerHeight="10.550836550532098" viewBox="-1.0 -1.3763819204711736 16.23606797749979 10.550836550532098" refX="-1.0" refY="3.8990363547948754"><path id="ProcessOnPath1238" d="M12.0 3.8990363547948754L0.0 7.798072709589751V0.0Z" stroke="#ff8000" stroke-width="2.0" fill="#ff8000" transform="matrix(1.0,0.0,0.0,1.0,0.0,0.0)"/></marker><marker id="ProcessOnMarker1245" markerUnits="userSpaceOnUse" orient="auto" markerWidth="16.23606797749979" markerHeight="10.550836550532098" viewBox="-1.0 -1.3763819204711736 16.23606797749979 10.550836550532098" refX="-1.0" refY="3.8990363547948754"><path id="ProcessOnPath1246" d="M12.0 3.8990363547948754L0.0 7.798072709589751V0.0Z" stroke="#ff8000" stroke-width="2.0" fill="#ff8000" transform="matrix(1.0,0.0,0.0,1.0,0.0,0.0)"/></marker><marker id="ProcessOnMarker1253" markerUnits="userSpaceOnUse" orient="auto" markerWidth="16.23606797749979" markerHeight="10.550836550532098" viewBox="-1.0 -1.3763819204711736 16.23606797749979 10.550836550532098" refX="-1.0" refY="3.8990363547948754"><path id="ProcessOnPath1254" d="M12.0 3.8990363547948754L0.0 7.798072709589751V0.0Z" stroke="#ff0000" stroke-width="2.0" fill="#ff0000" transform="matrix(1.0,0.0,0.0,1.0,0.0,0.0)"/></marker><marker id="ProcessOnMarker1261" markerUnits="userSpaceOnUse" orient="auto" markerWidth="16.23606797749979" markerHeight="10.550836550532098" viewBox="-1.0 -1.3763819204711736 16.23606797749979 10.550836550532098" refX="-1.0" refY="3.8990363547948754"><path id="ProcessOnPath1262" d="M12.0 3.8990363547948754L0.0 7.798072709589751V0.0Z" stroke="#ff0000" stroke-width="2.0" fill="#ff0000" transform="matrix(1.0,0.0,0.0,1.0,0.0,0.0)"/></marker></defs><g id="ProcessOnG1002"><path id="ProcessOnPath1003" d="M38.84999084472656 6.1999969482421875H1190.4000091552734V1379.6499133110046H38.84999084472656V6.1999969482421875Z" fill="none"/><g id="ProcessOnG1004"><g id="ProcessOnG1005" transform="matrix(1.0,0.0,0.0,1.0,58.84999084472656,26.199996948242188)" opacity="1.0"><path id="ProcessOnPath1006" d="M0.0 44.29999923706055C0.0 -14.766666412353516 165.5 -14.766666412353516 165.5 44.29999923706055C165.5 103.36666488647461 0.0 103.36666488647461 0.0 44.29999923706055Z" stroke="#ff0000" stroke-width="2.0" stroke-dasharray="none" opacity="1.0" fill="#ff6666"/><g id="ProcessOnG1007" transform="matrix(1.0,0.0,0.0,1.0,10.0,23.049999237060547)"><text id="ProcessOnText1008" fill="#ffffff" font-size="17" x="71.75" y="17.425" font-family="微软雅黑" font-weight="normal" font-style="normal" text-decoration="none" family="微软雅黑" text-anchor="middle" size="17">在浏览器中输入url</text><text id="ProcessOnText1009" fill="#ffffff" font-size="17" x="71.75" y="38.675" font-family="微软雅黑" font-weight="normal" font-style="normal" text-decoration="none" family="微软雅黑" text-anchor="middle" size="17">后发生了什么</text></g></g><g id="ProcessOnG1010" transform="matrix(1.0,0.0,0.0,1.0,91.59999084472656,195.79999542236328)" opacity="1.0"><path id="ProcessOnPath1011" d="M0.0 0.0L100.0 0.0L100.0 31.0L0.0 31.0Z" stroke="#ff0000" stroke-width="2.0" stroke-dasharray="none" opacity="1.0" fill="#ffffff"/><g id="ProcessOnG1012" transform="matrix(1.0,0.0,0.0,1.0,10.0,7.375)"><text id="ProcessOnText1013" fill="#000000" font-size="13" x="39.0" y="13.325" font-family="微软雅黑" font-weight="normal" font-style="normal" text-decoration="none" family="微软雅黑" text-anchor="middle" size="13">硬件中断</text></g></g><g id="ProcessOnG1014"><path id="ProcessOnPath1015" d="M141.59999084472656 114.79999542236328L141.59999084472656 155.29999542236328L141.59999084472656 155.29999542236328L141.59999084472656 180.56392744486348" stroke="#ff0000" stroke-width="2.0" stroke-dasharray="none" fill="none" marker-end="url(#ProcessOnMarker1016)"/></g><g id="ProcessOnG1018" transform="matrix(1.0,0.0,0.0,1.0,188.59999084472656,146.79999542236328)" opacity="1.0"><path id="ProcessOnPath1019" d="M28.0 0.0Q25.2 0.0 25.2 9.0L25.2 55.5Q25.2 64.5 6.0 64.5Q25.2 64.5 25.2 73.5L25.2 120.0Q25.2 129.0 28.0 129.0" stroke="#ff8000" stroke-width="2.0" stroke-dasharray="none" opacity="1.0" fill="#ffffff"/><path id="ProcessOnPath1020" d="M0.0 0.0L28.0 0.0L28.0 129.0L0.0 129.0Z" stroke="none" stroke-width="0.0" stroke-dasharray="none" opacity="1.0" fill="none"/></g><g id="ProcessOnG1021" transform="matrix(1.0,0.0,0.0,1.0,229.59999084472656,124.79999542236328)" opacity="1.0"><path id="ProcessOnPath1022" d="M0.0 0.0L257.0 0.0L257.0 41.0L0.0 41.0Z" stroke="#ff8000" stroke-width="2.0" stroke-dasharray="none" opacity="1.0" fill="#ffffff"/><g id="ProcessOnG1023" transform="matrix(1.0,0.0,0.0,1.0,10.0,4.25)"><text id="ProcessOnText1024" fill="#000000" font-size="13" x="0.0" y="13.325" font-family="微软雅黑" font-weight="normal" font-style="normal" text-decoration="none" family="微软雅黑" text-anchor="start" size="13">按键开关的电位弹跳变化进行噪音消除(d</text><text id="ProcessOnText1025" fill="#000000" font-size="13" x="0.0" y="29.575" font-family="微软雅黑" font-weight="normal" font-style="normal" text-decoration="none" family="微软雅黑" text-anchor="start" size="13">ebounce)，并将其转化为键盘码值</text></g></g><g id="ProcessOnG1026" transform="matrix(1.0,0.0,0.0,1.0,229.59999084472656,242.79999542236328)" opacity="1.0"><path id="ProcessOnPath1027" d="M0.0 0.0L257.0 0.0L257.0 55.40000343322754L0.0 55.40000343322754Z" stroke="#ff8000" stroke-width="2.0" stroke-dasharray="none" opacity="1.0" fill="#ffffff"/><g id="ProcessOnG1028" transform="matrix(1.0,0.0,0.0,1.0,10.0,3.3250017166137695)"><text id="ProcessOnText1029" fill="#000000" font-size="13" x="0.0" y="13.325" font-family="微软雅黑" font-weight="normal" font-style="normal" text-decoration="none" family="微软雅黑" text-anchor="start" size="13">中断请求线(IRQ)上发送信号到一个中断</text><text id="ProcessOnText1030" fill="#000000" font-size="13" x="0.0" y="29.575" font-family="微软雅黑" font-weight="normal" font-style="normal" text-decoration="none" family="微软雅黑" text-anchor="start" size="13">向量，CPU把中断向量映射到对应内核中</text><text id="ProcessOnText1031" fill="#000000" font-size="13" x="0.0" y="45.825" font-family="微软雅黑" font-weight="normal" font-style="normal" text-decoration="none" family="微软雅黑" text-anchor="start" size="13">断处理器函数</text></g></g><g id="ProcessOnG1032" transform="matrix(1.0,0.0,0.0,1.0,91.59999084472656,355.7999954223633)" opacity="1.0"><path id="ProcessOnPath1033" d="M0.0 0.0L100.0 0.0L100.0 32.40000343322754L0.0 32.40000343322754Z" stroke="#ff0000" stroke-width="2.0" stroke-dasharray="none" opacity="1.0" fill="#ffffff"/><g id="ProcessOnG1034" transform="matrix(1.0,0.0,0.0,1.0,10.0,8.07500171661377)"><text id="ProcessOnText1035" fill="#000000" font-size="13" x="39.0" y="13.325" font-family="微软雅黑" font-weight="normal" font-style="normal" text-decoration="none" family="微软雅黑" text-anchor="middle" size="13">系统处理</text></g></g><g id="ProcessOnG1036"><path id="ProcessOnPath1037" d="M141.59999084472656 226.79999542236328L141.59999084472656 291.2999954223633L141.59999084472656 291.2999954223633L141.59999084472656 340.5639274448635" stroke="#ff0000" stroke-width="2.0" stroke-dasharray="none" fill="none" marker-end="url(#ProcessOnMarker1038)"/></g><g id="ProcessOnG1040"><path id="ProcessOnPath1041" d="M358.09999084472656 165.79999542236328L358.09999084472656 204.29999542236328L358.09999084472656 204.29999542236328L358.09999084472656 227.56392744486348" stroke="#ff8000" stroke-width="2.0" stroke-dasharray="none" fill="none" marker-end="url(#ProcessOnMarker1042)"/></g><g id="ProcessOnG1044"><path id="ProcessOnPath1045" d="M358.09999084472656 242.79999542236328L358.09999084472656 204.29999542236328L358.09999084472656 204.29999542236328L358.09999084472656 181.03606339986308" stroke="#ff8000" stroke-width="2.0" stroke-dasharray="none" fill="none" marker-end="url(#ProcessOnMarker1046)"/></g><g id="ProcessOnG1048" transform="matrix(1.0,0.0,0.0,1.0,94.59999084472656,536.4499621391296)" opacity="1.0"><path id="ProcessOnPath1049" d="M0.0 0.0L94.0 0.0L94.0 42.0L0.0 42.0Z" stroke="#ff0000" stroke-width="2.0" stroke-dasharray="none" opacity="1.0" fill="#ffffff"/><g id="ProcessOnG1050" transform="matrix(1.0,0.0,0.0,1.0,10.0,12.875)"><text id="ProcessOnText1051" fill="#000000" font-size="13" x="36.0" y="13.325" font-family="微软雅黑" font-weight="normal" font-style="normal" text-decoration="none" family="微软雅黑" text-anchor="middle" size="13">浏览器处理</text></g></g><g id="ProcessOnG1052"><path id="ProcessOnPath1053" d="M141.59999084472656 388.1999988555908L141.59999084472656 462.32498049736023L141.59999084472656 462.32498049736023L141.59999084472656 521.2138941616298" stroke="#ff0000" stroke-width="2.0" stroke-dasharray="none" fill="none" marker-end="url(#ProcessOnMarker1054)"/></g><g id="ProcessOnG1056" transform="matrix(1.0,0.0,0.0,1.0,234.59999084472656,345.19998931884766)" opacity="1.0"><path id="ProcessOnPath1057" d="M0.0 0.0L191.0 0.0L191.0 48.20001983642578L0.0 48.20001983642578Z" stroke="#ff8000" stroke-width="2.0" stroke-dasharray="none" opacity="1.0" fill="#ffffff"/><g id="ProcessOnG1058" transform="matrix(1.0,0.0,0.0,1.0,10.0,7.850009918212891)"><text id="ProcessOnText1059" fill="#000000" font-size="13" x="84.5" y="13.325" font-family="微软雅黑" font-weight="normal" font-style="normal" text-decoration="none" family="微软雅黑" text-anchor="middle" size="13">解析URL(协议、域名、服务</text><text id="ProcessOnText1060" fill="#000000" font-size="13" x="84.5" y="29.575" font-family="微软雅黑" font-weight="normal" font-style="normal" text-decoration="none" family="微软雅黑" text-anchor="middle" size="13">器、资源、请求参数、锚)</text></g></g><g id="ProcessOnG1061" transform="matrix(1.0,0.0,0.0,1.0,447.59999084472656,455.6999626159668)" opacity="1.0"><path id="ProcessOnPath1062" d="M0.0 0.0L162.40000915527344 0.0L162.40000915527344 61.850040435791016L0.0 61.850040435791016Z" stroke="#ff0000" stroke-width="2.0" stroke-dasharray="none" opacity="1.0" fill="#ffffff"/><g id="ProcessOnG1063" transform="matrix(1.0,0.0,0.0,1.0,10.0,14.675020217895508)"><text id="ProcessOnText1064" fill="#ff0000" font-size="13" x="70.20000457763672" y="13.325" font-family="微软雅黑" font-weight="bold" font-style="normal" text-decoration="none" family="微软雅黑" text-anchor="middle" size="13">检查 HSTS 列表（HTTP</text><text id="ProcessOnText1065" fill="#ff0000" font-size="13" x="70.20000457763672" y="29.575" font-family="微软雅黑" font-weight="bold" font-style="normal" text-decoration="none" family="微软雅黑" text-anchor="middle" size="13">严格传输安全）</text></g></g><g id="ProcessOnG1066"><path id="ProcessOnPath1067" d="M330.09999084472656 393.40000915527344L330.09999084472656 429.6000061035156L330.09999084472656 429.6000061035156L330.09999084472656 450.56393507425804" stroke="#ff8000" stroke-width="2.0" stroke-dasharray="none" fill="none" marker-end="url(#ProcessOnMarker1068)"/></g><g id="ProcessOnG1070" transform="matrix(1.0,0.0,0.0,1.0,661.5999908447266,451.6249828338623)" opacity="1.0"><path id="ProcessOnPath1071" d="M0.0 35.0L45.0 0.0L90.0 35.0L45.0 70.0L0.0 35.0Z" stroke="#323232" stroke-width="2.0" stroke-dasharray="none" opacity="1.0" fill="#ffffff"/><g id="ProcessOnG1072" transform="matrix(1.0,0.0,0.0,1.0,10.0,26.875)"><text id="ProcessOnText1073" fill="#000000" font-size="13" x="34.0" y="13.325" font-family="微软雅黑" font-weight="normal" font-style="normal" text-decoration="none" family="微软雅黑" text-anchor="middle" size="13">是否存在？</text></g></g><g id="ProcessOnG1074"><path id="ProcessOnPath1075" d="M610.0 486.6249828338623L635.7999954223633 486.6249828338623L635.7999954223633 486.6249828338623L646.3639228672267 486.6249828338623" stroke="#323232" stroke-width="2.0" stroke-dasharray="none" fill="none" marker-end="url(#ProcessOnMarker1076)"/></g><g id="ProcessOnG1078"><path id="ProcessOnPath1079" d="M706.5999908447266 521.6249828338623L706.5999908447266 533.4000091552734L781.7639320225002 533.4000091552734" stroke="#323232" stroke-width="2.0" stroke-dasharray="none" fill="none" marker-end="url(#ProcessOnMarker1080)"/><g id="ProcessOnG1082" transform="matrix(1.0,0.0,0.0,1.0,738.2944482729079,525.2750091552734)"><path id="ProcessOnPath1083" d="M0 0H13.0V16.25H0Z" fill="#fff" transform="matrix(1.0,0.0,0.0,1.0,-6.5,0.0)"/><text id="ProcessOnText1084" fill="#000000" font-size="13" x="0.0" y="13.325" font-family="微软雅黑" font-weight="normal" font-style="normal" text-decoration="none" family="微软雅黑" text-anchor="middle" size="13">否</text></g></g><g id="ProcessOnG1085"><path id="ProcessOnPath1086" d="M706.5999908447266 451.6249828338623L706.5999908447266 439.40000915527344L783.7639320225002 439.40000915527344" stroke="#323232" stroke-width="2.0" stroke-dasharray="none" fill="none" marker-end="url(#ProcessOnMarker1087)"/><g id="ProcessOnG1089" transform="matrix(1.0,0.0,0.0,1.0,739.069474594319,431.27500915527344)"><path id="ProcessOnPath1090" d="M0 0H13.0V16.25H0Z" fill="#fff" transform="matrix(1.0,0.0,0.0,1.0,-6.5,0.0)"/><text id="ProcessOnText1091" fill="#000000" font-size="13" x="0.0" y="13.325" font-family="微软雅黑" font-weight="normal" font-style="normal" text-decoration="none" family="微软雅黑" text-anchor="middle" size="13">是</text></g></g><g id="ProcessOnG1092" transform="matrix(1.0,0.0,0.0,1.0,273.89998626708984,465.8000030517578)" opacity="1.0"><path id="ProcessOnPath1093" d="M0.0 0.0L112.40000915527344 0.0L112.40000915527344 47.149959564208984L0.0 47.149959564208984Z" stroke="#ff8000" stroke-width="2.0" stroke-dasharray="none" opacity="1.0" fill="#ffffff"/><g id="ProcessOnG1094" transform="matrix(1.0,0.0,0.0,1.0,10.0,15.449979782104492)"><text id="ProcessOnText1095" fill="#000000" font-size="13" x="45.20000457763672" y="13.325" font-family="微软雅黑" font-weight="normal" font-style="normal" text-decoration="none" family="微软雅黑" text-anchor="middle" size="13">协议判断</text></g></g><g id="ProcessOnG1096" transform="matrix(1.0,0.0,0.0,1.0,277.09999084472656,790.5000152587891)" opacity="1.0"><path id="ProcessOnPath1097" d="M0.0 0.0L106.0 0.0L106.0 38.0L0.0 38.0Z" stroke="#ff8000" stroke-width="2.0" stroke-dasharray="none" opacity="1.0" fill="#ffffff"/><g id="ProcessOnG1098" transform="matrix(1.0,0.0,0.0,1.0,10.0,10.875)"><text id="ProcessOnText1099" fill="#000000" font-size="13" x="42.0" y="13.325" font-family="微软雅黑" font-weight="normal" font-style="normal" text-decoration="none" family="微软雅黑" text-anchor="middle" size="13">IP获取</text></g></g><g id="ProcessOnG1100"><path id="ProcessOnPath1101" d="M330.09999084472656 512.9499626159668L330.09999084472656 651.7249889373779L330.09999084472656 651.7249889373779L330.09999084472656 775.2639472812892" stroke="#ff8000" stroke-width="2.0" stroke-dasharray="none" fill="none" marker-end="url(#ProcessOnMarker1102)"/></g><g id="ProcessOnG1104" transform="matrix(1.0,0.0,0.0,1.0,454.0,773.2000122070312)" opacity="1.0"><path id="ProcessOnPath1105" d="M0.0 0.0L100.0 0.0L100.0 70.0L0.0 70.0Z" stroke="#323232" stroke-width="2.0" stroke-dasharray="none" opacity="1.0" fill="#ffffff"/><g id="ProcessOnG1106" transform="matrix(1.0,0.0,0.0,1.0,10.0,26.875)"><text id="ProcessOnText1107" fill="#000000" font-size="13" x="39.0" y="13.325" font-family="微软雅黑" font-weight="normal" font-style="normal" text-decoration="none" family="微软雅黑" text-anchor="middle" size="13">DNS 查询</text></g></g><g id="ProcessOnG1108" transform="matrix(1.0,0.0,0.0,1.0,191.59999084472656,367.49992275238037)" opacity="1.0"><path id="ProcessOnPath1109" d="M28.0 0.0Q25.2 0.0 25.2 9.0L25.2 180.95003938674927Q25.2 189.95003938674927 6.0 189.95003938674927Q25.2 189.95003938674927 25.2 198.95003938674927L25.2 370.90007877349854Q25.2 379.90007877349854 28.0 379.90007877349854" stroke="#ff8000" stroke-width="2.0" stroke-dasharray="none" opacity="1.0" fill="none"/><path id="ProcessOnPath1110" d="M0.0 0.0L28.0 0.0L28.0 379.90007877349854L0.0 379.90007877349854Z" stroke="none" stroke-width="0.0" stroke-dasharray="none" opacity="1.0" fill="none"/></g><g id="ProcessOnG1111" transform="matrix(1.0,0.0,0.0,1.0,397.0,460.3000030517578)" opacity="1.0"><path id="ProcessOnPath1112" d="M0.0 17.374486656188967L22.55 17.374486656188967L22.55 0.0L41.0 26.324979782104492L22.55 52.649959564208984L22.55 35.27547290802002L0.0 35.27547290802002L0.0 17.374486656188967Z" stroke="#323232" stroke-width="2.0" stroke-dasharray="none" opacity="1.0" fill="#ffffff"/></g><g id="ProcessOnG1113" transform="matrix(1.0,0.0,0.0,1.0,604.0,584.8499631881714)" opacity="1.0"><path id="ProcessOnPath1114" d="M0.0 0.0L304.0 0.0L304.0 38.75004291534424L0.0 38.75004291534424Z" stroke="#323232" stroke-width="2.0" stroke-dasharray="none" opacity="1.0" fill="#ffffff"/><g id="ProcessOnG1115" transform="matrix(1.0,0.0,0.0,1.0,10.0,11.25002145767212)"><text id="ProcessOnText1116" fill="#000000" font-size="13" x="141.0" y="13.325" font-family="微软雅黑" font-weight="normal" font-style="normal" text-decoration="none" family="微软雅黑" text-anchor="middle" size="13">检测浏览器缓存 (chrome://net-internals/#dns)</text></g></g><g id="ProcessOnG1117" transform="matrix(1.0,0.0,0.0,1.0,801.099983215332,420.3000030517578)" opacity="1.0"><path id="ProcessOnPath1118" d="M0.0 0.0L103.90001678466797 0.0L103.90001678466797 40.0L0.0 40.0Z" stroke="none" stroke-width="0.0" stroke-dasharray="none" opacity="1.0" fill="none"/><g id="ProcessOnG1119" transform="matrix(1.0,0.0,0.0,1.0,0.0,11.875)"><text id="ProcessOnText1120" fill="#000000" font-size="13" x="50.950008392333984" y="13.325" font-family="微软雅黑" font-weight="normal" font-style="normal" text-decoration="none" family="微软雅黑" text-anchor="middle" size="13">使用https请求</text></g></g><g id="ProcessOnG1121" transform="matrix(1.0,0.0,0.0,1.0,795.099983215332,517.5500030517578)" opacity="1.0"><path id="ProcessOnPath1122" d="M0.0 0.0L104.95000839233398 0.0L104.95000839233398 35.0L0.0 35.0Z" stroke="none" stroke-width="0.0" stroke-dasharray="none" opacity="1.0" fill="none"/><g id="ProcessOnG1123" transform="matrix(1.0,0.0,0.0,1.0,0.0,9.375)"><text id="ProcessOnText1124" fill="#000000" font-size="13" x="51.47500419616699" y="13.325" font-family="微软雅黑" font-weight="normal" font-style="normal" text-decoration="none" family="微软雅黑" text-anchor="middle" size="13">使用http请求</text></g></g><g id="ProcessOnG1125" transform="matrix(1.0,0.0,0.0,1.0,391.0,783.1750354766846)" opacity="1.0"><path id="ProcessOnPath1126" d="M0.0 17.374486656188967L22.55 17.374486656188967L22.55 0.0L41.0 26.324979782104492L22.55 52.649959564208984L22.55 35.27547290802002L0.0 35.27547290802002L0.0 17.374486656188967Z" stroke="#323232" stroke-width="2.0" stroke-dasharray="none" opacity="1.0" fill="#ffffff"/></g><g id="ProcessOnG1127" transform="matrix(1.0,0.0,0.0,1.0,554.0,618.6000061035156)" opacity="1.0"><path id="ProcessOnPath1128" d="M31.600000381469727 0.0Q28.440000343322755 0.0 28.440000343322755 9.0L28.440000343322755 181.90000915527344Q28.440000343322755 190.90000915527344 9.600000381469727 190.90000915527344Q28.440000343322755 190.90000915527344 28.440000343322755 199.90000915527344L28.440000343322755 372.8000183105469Q28.440000343322755 381.8000183105469 31.600000381469727 381.8000183105469" stroke="#323232" stroke-width="2.0" stroke-dasharray="none" opacity="1.0" fill="none"/><path id="ProcessOnPath1129" d="M0.0 0.0L31.600000381469727 0.0L31.600000381469727 381.8000183105469L0.0 381.8000183105469Z" stroke="none" stroke-width="0.0" stroke-dasharray="none" opacity="1.0" fill="none"/></g><g id="ProcessOnG1130" transform="matrix(1.0,0.0,0.0,1.0,706.5,721.6000061035156)" opacity="1.0"><path id="ProcessOnPath1131" d="M0.0 0.0L99.0 0.0L99.0 39.3749942779541L0.0 39.3749942779541Z" stroke="#323232" stroke-width="2.0" stroke-dasharray="none" opacity="1.0" fill="#ffffff"/><g id="ProcessOnG1132" transform="matrix(1.0,0.0,0.0,1.0,10.0,3.437497138977051)"><text id="ProcessOnText1133" fill="#000000" font-size="13" x="38.5" y="13.325" font-family="微软雅黑" font-weight="normal" font-style="normal" text-decoration="none" family="微软雅黑" text-anchor="middle" size="13">检测系统缓</text><text id="ProcessOnText1134" fill="#000000" font-size="13" x="38.5" y="29.575" font-family="微软雅黑" font-weight="normal" font-style="normal" text-decoration="none" family="微软雅黑" text-anchor="middle" size="13">存</text></g></g><g id="ProcessOnG1135"><path id="ProcessOnPath1136" d="M756.0 623.6000061035156L756.0 672.6000061035156L756.0 672.6000061035156L756.0 706.3639381260158" stroke="#323232" stroke-width="2.0" stroke-dasharray="none" fill="none" marker-end="url(#ProcessOnMarker1137)"/><g id="ProcessOnG1139" transform="matrix(1.0,0.0,0.0,1.0,756.0,656.8569721147658)"><path id="ProcessOnPath1140" d="M0 0H26.0V16.25H0Z" fill="#fff" transform="matrix(1.0,0.0,0.0,1.0,-13.0,0.0)"/><text id="ProcessOnText1141" fill="#000000" font-size="13" x="0.0" y="13.325" font-family="微软雅黑" font-weight="normal" font-style="normal" text-decoration="none" family="微软雅黑" text-anchor="middle" size="13">没有</text></g></g><g id="ProcessOnG1142" transform="matrix(1.0,0.0,0.0,1.0,808.0,677.7875032424927)" opacity="1.0"><path id="ProcessOnPath1143" d="M27.599990844726562 0.0Q24.839991760253906 0.0 24.839991760253906 9.0L24.839991760253906 54.5Q24.839991760253906 63.5 5.5999908447265625 63.5Q24.839991760253906 63.5 24.839991760253906 72.5L24.839991760253906 118.0Q24.839991760253906 127.0 27.599990844726562 127.0" stroke="#323232" stroke-width="2.0" stroke-dasharray="none" opacity="1.0" fill="none"/><path id="ProcessOnPath1144" d="M0.0 0.0L27.599990844726562 0.0L27.599990844726562 127.0L0.0 127.0Z" stroke="none" stroke-width="0.0" stroke-dasharray="none" opacity="1.0" fill="none"/></g><g id="ProcessOnG1145" transform="matrix(1.0,0.0,0.0,1.0,785.0,664.6000061035156)" opacity="1.0"><path id="ProcessOnPath1146" d="M0.0 0.0L160.0 0.0L160.0 40.0L0.0 40.0Z" stroke="none" stroke-width="0.0" stroke-dasharray="none" opacity="1.0" fill="none"/><g id="ProcessOnG1147" transform="matrix(1.0,0.0,0.0,1.0,0.0,11.875)"><text id="ProcessOnText1148" fill="#000000" font-size="13" x="79.0" y="13.325" font-family="微软雅黑" font-weight="normal" font-style="normal" text-decoration="none" family="微软雅黑" text-anchor="middle" size="13">win</text></g></g><g id="ProcessOnG1149" transform="matrix(1.0,0.0,0.0,1.0,785.0,721.2875032424927)" opacity="1.0"><path id="ProcessOnPath1150" d="M0.0 0.0L160.0 0.0L160.0 40.0L0.0 40.0Z" stroke="none" stroke-width="0.0" stroke-dasharray="none" opacity="1.0" fill="none"/><g id="ProcessOnG1151" transform="matrix(1.0,0.0,0.0,1.0,0.0,11.875)"><text id="ProcessOnText1152" fill="#000000" font-size="13" x="79.0" y="13.325" font-family="微软雅黑" font-weight="normal" font-style="normal" text-decoration="none" family="微软雅黑" text-anchor="middle" size="13">mac</text></g></g><g id="ProcessOnG1153" transform="matrix(1.0,0.0,0.0,1.0,785.0,773.2000122070312)" opacity="1.0"><path id="ProcessOnPath1154" d="M0.0 0.0L160.0 0.0L160.0 40.0L0.0 40.0Z" stroke="none" stroke-width="0.0" stroke-dasharray="none" opacity="1.0" fill="none"/><g id="ProcessOnG1155" transform="matrix(1.0,0.0,0.0,1.0,0.0,11.875)"><text id="ProcessOnText1156" fill="#000000" font-size="13" x="79.0" y="13.325" font-family="微软雅黑" font-weight="normal" font-style="normal" text-decoration="none" family="微软雅黑" text-anchor="middle" size="13">linux</text></g></g><g id="ProcessOnG1157" transform="matrix(1.0,0.0,0.0,1.0,700.0,849.8000183105469)" opacity="1.0"><path id="ProcessOnPath1158" d="M0.0 0.0L112.0 0.0L112.0 44.0L0.0 44.0Z" stroke="#323232" stroke-width="2.0" stroke-dasharray="none" opacity="1.0" fill="#ffffff"/><g id="ProcessOnG1159" transform="matrix(1.0,0.0,0.0,1.0,10.0,-2.375)"><text id="ProcessOnText1160" fill="#000000" font-size="13" x="45.0" y="13.325" font-family="微软雅黑" font-weight="normal" font-style="normal" text-decoration="none" family="微软雅黑" text-anchor="middle" size="13">检测路由器缓</text><text id="ProcessOnText1161" fill="#000000" font-size="13" x="45.0" y="29.575" font-family="微软雅黑" font-weight="normal" font-style="normal" text-decoration="none" family="微软雅黑" text-anchor="middle" size="13">存的DNS服务</text><text id="ProcessOnText1162" fill="#000000" font-size="13" x="45.0" y="45.825" font-family="微软雅黑" font-weight="normal" font-style="normal" text-decoration="none" family="微软雅黑" text-anchor="middle" size="13">器</text></g></g><g id="ProcessOnG1163"><path id="ProcessOnPath1164" d="M756.0 760.9750003814697L756.0 805.3875093460083L756.0 805.3875093460083L756.0 834.563950333047" stroke="#323232" stroke-width="2.0" stroke-dasharray="none" fill="none" marker-end="url(#ProcessOnMarker1165)"/><g id="ProcessOnG1167" transform="matrix(1.0,0.0,0.0,1.0,756.0,789.6444753572584)"><path id="ProcessOnPath1168" d="M0 0H26.0V16.25H0Z" fill="#fff" transform="matrix(1.0,0.0,0.0,1.0,-13.0,0.0)"/><text id="ProcessOnText1169" fill="#000000" font-size="13" x="0.0" y="13.325" font-family="微软雅黑" font-weight="normal" font-style="normal" text-decoration="none" family="微软雅黑" text-anchor="middle" size="13">没有</text></g></g><g id="ProcessOnG1170" transform="matrix(1.0,0.0,0.0,1.0,680.549991607666,976.6000366210938)" opacity="1.0"><path id="ProcessOnPath1171" d="M0.0 0.0L150.90001678466797 0.0L150.90001678466797 46.0L0.0 46.0Z" stroke="#323232" stroke-width="2.0" stroke-dasharray="none" opacity="1.0" fill="#ffffff"/><g id="ProcessOnG1172" transform="matrix(1.0,0.0,0.0,1.0,10.0,6.75)"><text id="ProcessOnText1173" fill="#000000" font-size="13" x="64.45000839233398" y="13.325" font-family="微软雅黑" font-weight="normal" font-style="normal" text-decoration="none" family="微软雅黑" text-anchor="middle" size="13">ISP(互联网服务提供商</text><text id="ProcessOnText1174" fill="#000000" font-size="13" x="64.45000839233398" y="29.575" font-family="微软雅黑" font-weight="normal" font-style="normal" text-decoration="none" family="微软雅黑" text-anchor="middle" size="13">) 缓存的DNS服务器</text></g></g><g id="ProcessOnG1175"><path id="ProcessOnPath1176" d="M756.0 893.8000183105469L756.0 935.2000274658203L756.0 935.2000274658203L756.0 961.3639686435939" stroke="#323232" stroke-width="2.0" stroke-dasharray="none" fill="none" marker-end="url(#ProcessOnMarker1177)"/><g id="ProcessOnG1179" transform="matrix(1.0,0.0,0.0,1.0,756.0,919.4569934770705)"><path id="ProcessOnPath1180" d="M0 0H26.0V16.25H0Z" fill="#fff" transform="matrix(1.0,0.0,0.0,1.0,-13.0,0.0)"/><text id="ProcessOnText1181" fill="#000000" font-size="13" x="0.0" y="13.325" font-family="微软雅黑" font-weight="normal" font-style="normal" text-decoration="none" family="微软雅黑" text-anchor="middle" size="13">没有</text></g></g><g id="ProcessOnG1182" transform="matrix(1.0,0.0,0.0,1.0,933.0,867.4000244140625)" opacity="1.0"><path id="ProcessOnPath1183" d="M0.0 58.0L74.0 0.0L148.0 58.0L74.0 116.0Z" stroke="#323232" stroke-width="2.0" stroke-dasharray="none" opacity="1.0" fill="#ffffff"/><g id="ProcessOnG1184" transform="matrix(1.0,0.0,0.0,1.0,10.0,42.33)"><text id="ProcessOnText1185" fill="#000000" font-size="13" x="63.0" y="13.325" font-family="微软雅黑" font-weight="normal" font-style="normal" text-decoration="none" family="微软雅黑" text-anchor="middle" size="13">  DNS服务器与主机  </text><text id="ProcessOnText1186" fill="#000000" font-size="13" x="63.0" y="29.575" font-family="微软雅黑" font-weight="normal" font-style="normal" text-decoration="none" family="微软雅黑" text-anchor="middle" size="13">是否在同一子网内？</text></g></g><g id="ProcessOnG1187"><path id="ProcessOnPath1188" d="M812.0 871.8000183105469L872.5 871.8000183105469L872.5 925.4000244140625L917.7639320225002 925.4000244140625" stroke="#323232" stroke-width="2.0" stroke-dasharray="none" fill="none" marker-end="url(#ProcessOnMarker1189)"/></g><g id="ProcessOnG1191"><path id="ProcessOnPath1192" d="M831.450008392334 999.6000366210938L873.225004196167 999.6000366210938L873.225004196167 925.4000244140625L917.7639320225002 925.4000244140625" stroke="#323232" stroke-width="2.0" stroke-dasharray="none" fill="none" marker-end="url(#ProcessOnMarker1193)"/></g><g id="ProcessOnG1195" transform="matrix(1.0,0.0,0.0,1.0,852.4000091552734,1049.0)" opacity="1.0"><path id="ProcessOnPath1196" d="M0.0 0.0L112.0 0.0L112.0 52.0L0.0 52.0Z" stroke="#323232" stroke-width="2.0" stroke-dasharray="none" opacity="1.0" fill="#ffffff"/><g id="ProcessOnG1197" transform="matrix(1.0,0.0,0.0,1.0,10.0,9.75)"><text id="ProcessOnText1198" fill="#000000" font-size="13" x="45.0" y="13.325" font-family="微软雅黑" font-weight="normal" font-style="normal" text-decoration="none" family="微软雅黑" text-anchor="middle" size="13">对 DNS 服务器</text><text id="ProcessOnText1199" fill="#000000" font-size="13" x="45.0" y="29.575" font-family="微软雅黑" font-weight="normal" font-style="normal" text-decoration="none" family="微软雅黑" text-anchor="middle" size="13">进行 ARP查询</text></g></g><g id="ProcessOnG1200" transform="matrix(1.0,0.0,0.0,1.0,1049.0,1049.0)" opacity="1.0"><path id="ProcessOnPath1201" d="M0.0 0.0L121.40000915527344 0.0L121.40000915527344 52.0L0.0 52.0Z" stroke="#323232" stroke-width="2.0" stroke-dasharray="none" opacity="1.0" fill="#ffffff"/><g id="ProcessOnG1202" transform="matrix(1.0,0.0,0.0,1.0,10.0,9.75)"><text id="ProcessOnText1203" fill="#000000" font-size="13" x="49.70000457763672" y="13.325" font-family="微软雅黑" font-weight="normal" font-style="normal" text-decoration="none" family="微软雅黑" text-anchor="middle" size="13">对默认网关进行</text><text id="ProcessOnText1204" fill="#000000" font-size="13" x="49.70000457763672" y="29.575" font-family="微软雅黑" font-weight="normal" font-style="normal" text-decoration="none" family="微软雅黑" text-anchor="middle" size="13">ARP查询</text></g></g><g id="ProcessOnG1205"><path id="ProcessOnPath1206" d="M1007.0 983.4000244140625L1007.0 1016.2000122070312L908.4000091552734 1016.2000122070312L908.4000091552734 1033.7639320225003" stroke="#323232" stroke-width="2.0" stroke-dasharray="none" fill="none" marker-end="url(#ProcessOnMarker1207)"/><g id="ProcessOnG1209" transform="matrix(1.0,0.0,0.0,1.0,965.3180385663866,1008.0750122070312)"><path id="ProcessOnPath1210" d="M0 0H13.0V16.25H0Z" fill="#fff" transform="matrix(1.0,0.0,0.0,1.0,-6.5,0.0)"/><text id="ProcessOnText1211" fill="#000000" font-size="13" x="0.0" y="13.325" font-family="微软雅黑" font-weight="normal" font-style="normal" text-decoration="none" family="微软雅黑" text-anchor="middle" size="13">是</text></g></g><g id="ProcessOnG1212"><path id="ProcessOnPath1213" d="M1007.0 983.4000244140625L1007.0 1016.2000122070312L1109.7000045776367 1016.2000122070312L1109.7000045776367 1033.7639320225003" stroke="#323232" stroke-width="2.0" stroke-dasharray="none" fill="none" marker-end="url(#ProcessOnMarker1214)"/><g id="ProcessOnG1216" transform="matrix(1.0,0.0,0.0,1.0,1050.7319683000685,1008.0750122070312)"><path id="ProcessOnPath1217" d="M0 0H13.0V16.25H0Z" fill="#fff" transform="matrix(1.0,0.0,0.0,1.0,-6.5,0.0)"/><text id="ProcessOnText1218" fill="#000000" font-size="13" x="0.0" y="13.325" font-family="微软雅黑" font-weight="normal" font-style="normal" text-decoration="none" family="微软雅黑" text-anchor="middle" size="13">否</text></g></g><g id="ProcessOnG1219" transform="matrix(1.0,0.0,0.0,1.0,277.09999084472656,914.800048828125)" opacity="1.0"><path id="ProcessOnPath1220" d="M0.0 0.0L106.0 0.0L106.0 38.0L0.0 38.0Z" stroke="#ff8000" stroke-width="2.0" stroke-dasharray="none" opacity="1.0" fill="#ffffff"/><g id="ProcessOnG1221" transform="matrix(1.0,0.0,0.0,1.0,10.0,10.875)"><text id="ProcessOnText1222" fill="#000000" font-size="13" x="42.0" y="13.325" font-family="微软雅黑" font-weight="normal" font-style="normal" text-decoration="none" family="微软雅黑" text-anchor="middle" size="13">TLS 握手</text></g></g><g id="ProcessOnG1223" transform="matrix(1.0,0.0,0.0,1.0,962.0,1156.0)" opacity="1.0"><path id="ProcessOnPath1224" d="M0.0 35.5C0.0 -11.833333333333334 84.0 -11.833333333333334 84.0 35.5C84.0 82.83333333333333 0.0 82.83333333333333 0.0 35.5Z" stroke="#323232" stroke-width="2.0" stroke-dasharray="none" opacity="1.0" fill="#ffffff"/><g id="ProcessOnG1225" transform="matrix(1.0,0.0,0.0,1.0,10.0,27.375)"><text id="ProcessOnText1226" fill="#000000" font-size="13" x="31.0" y="13.325" font-family="微软雅黑" font-weight="normal" font-style="normal" text-decoration="none" family="微软雅黑" text-anchor="middle" size="13">ARP 过程</text></g></g><g id="ProcessOnG1227"><path id="ProcessOnPath1228" d="M908.4000091552734 1101.0L908.4000091552734 1128.5L1004.0 1128.5L1004.0 1140.7639320225003" stroke="#323232" stroke-width="2.0" stroke-dasharray="none" fill="none" marker-end="url(#ProcessOnMarker1229)"/></g><g id="ProcessOnG1231"><path id="ProcessOnPath1232" d="M1109.7000045776367 1101.0L1109.7000045776367 1128.5L1004.0 1128.5L1004.0 1140.7639320225003" stroke="#323232" stroke-width="2.0" stroke-dasharray="none" fill="none" marker-end="url(#ProcessOnMarker1233)"/></g><g id="ProcessOnG1235"><path id="ProcessOnPath1236" d="M330.09999084472656 828.5000152587891L330.09999084472656 871.650032043457L330.09999084472656 871.650032043457L330.09999084472656 899.5639808506252" stroke="#ff8000" stroke-width="2.0" stroke-dasharray="none" fill="none" marker-end="url(#ProcessOnMarker1237)"/></g><g id="ProcessOnG1239" transform="matrix(1.0,0.0,0.0,1.0,277.09999084472656,1036.0)" opacity="1.0"><path id="ProcessOnPath1240" d="M0.0 0.0L106.0 0.0L106.0 38.0L0.0 38.0Z" stroke="#ff8000" stroke-width="2.0" stroke-dasharray="none" opacity="1.0" fill="#ffffff"/><g id="ProcessOnG1241" transform="matrix(1.0,0.0,0.0,1.0,10.0,10.875)"><text id="ProcessOnText1242" fill="#000000" font-size="13" x="42.0" y="13.325" font-family="微软雅黑" font-weight="normal" font-style="normal" text-decoration="none" family="微软雅黑" text-anchor="middle" size="13">Http请求</text></g></g><g id="ProcessOnG1243"><path id="ProcessOnPath1244" d="M330.09999084472656 952.800048828125L330.09999084472656 994.4000244140625L330.09999084472656 994.4000244140625L330.09999084472656 1020.7639320225002" stroke="#ff8000" stroke-width="2.0" stroke-dasharray="none" fill="none" marker-end="url(#ProcessOnMarker1245)"/></g><g id="ProcessOnG1247" transform="matrix(1.0,0.0,0.0,1.0,94.59999084472656,1167.6499133110046)" opacity="1.0"><path id="ProcessOnPath1248" d="M0.0 0.0L94.0 0.0L94.0 42.0L0.0 42.0Z" stroke="#ff0000" stroke-width="2.0" stroke-dasharray="none" opacity="1.0" fill="#ffffff"/><g id="ProcessOnG1249" transform="matrix(1.0,0.0,0.0,1.0,10.0,12.875)"><text id="ProcessOnText1250" fill="#000000" font-size="13" x="36.0" y="13.325" font-family="微软雅黑" font-weight="normal" font-style="normal" text-decoration="none" family="微软雅黑" text-anchor="middle" size="13">服务器响应</text></g></g><g id="ProcessOnG1251"><path id="ProcessOnPath1252" d="M141.59999084472656 578.4499621391296L141.59999084472656 873.0499377250671L141.59999084472656 873.0499377250671L141.59999084472656 1152.413845333505" stroke="#ff0000" stroke-width="2.0" stroke-dasharray="none" fill="none" marker-end="url(#ProcessOnMarker1253)"/></g><g id="ProcessOnG1255" transform="matrix(1.0,0.0,0.0,1.0,94.59999084472656,1317.6499133110046)" opacity="1.0"><path id="ProcessOnPath1256" d="M0.0 0.0L94.0 0.0L94.0 42.0L0.0 42.0Z" stroke="#ff0000" stroke-width="2.0" stroke-dasharray="none" opacity="1.0" fill="#ffffff"/><g id="ProcessOnG1257" transform="matrix(1.0,0.0,0.0,1.0,10.0,12.875)"><text id="ProcessOnText1258" fill="#000000" font-size="13" x="36.0" y="13.325" font-family="微软雅黑" font-weight="normal" font-style="normal" text-decoration="none" family="微软雅黑" text-anchor="middle" size="13">浏览器渲染</text></g></g><g id="ProcessOnG1259"><path id="ProcessOnPath1260" d="M141.59999084472656 1209.6499133110046L141.59999084472656 1263.6499133110046L141.59999084472656 1263.6499133110046L141.59999084472656 1302.413845333505" stroke="#ff0000" stroke-width="2.0" stroke-dasharray="none" fill="none" marker-end="url(#ProcessOnMarker1261)"/></g></g></g></svg>